<?xml version="1.0" encoding="utf-8"?>
<!-- Generator: Adobe Illustrator 19.0.0, SVG Export Plug-In . SVG Version: 6.00 Build 0)  -->
<svg version="1.1" id="Layer_1" xmlns="http://www.w3.org/2000/svg" xmlns:xlink="http://www.w3.org/1999/xlink" x="0px" y="0px"
	 viewBox="-22 136 246 130" style="enable-background:new -22 136 246 130;" xml:space="preserve">
<style type="text/css">
	.st0{fill:#FD2D01;}
	.st1{fill:#FFD7D7;}
</style>
<g id="_x37_e319840-739a-a0f1-f316-ea813584ba79" transform="matrix(2.8,0,0,2.8,30.62199562788011,167.12059412002563)">
	<path class="st0" d="M-12.1,30.9L-12.1,30.9c-1.5,0-2.7-0.5-3.6-1.5l0,0l0,0c-1-1-1.5-2.2-1.5-3.7l0,0l0,0c0-1.4,0.5-2.7,1.5-3.6
		l0,0l0,0c1-1,2.2-1.5,3.6-1.5l0,0l0,0c1.5,0,2.7,0.5,3.8,1.4l0,0l-1.4,1.5l0,0c-0.7-0.5-1.5-0.8-2.4-0.8l0,0l0,0
		c-0.9,0-1.7,0.3-2.2,0.9l0,0l0,0c-0.6,0.6-0.8,1.3-0.8,2.2l0,0l0,0c0,1,0.3,1.7,0.8,2.3l0,0l0,0c0.6,0.6,1.3,0.8,2.2,0.8l0,0l0,0
		c0.7,0,1.3-0.1,1.7-0.4l0,0v-1.8l-1.4,0v-1.9h3.4v4.8l0,0C-9.4,30.4-10.6,30.9-12.1,30.9L-12.1,30.9z M-4.7,24v0.8l0,0
		c0.5-0.5,1.1-0.8,1.8-0.8l0,0l0,0c0.2,0,0.4,0,0.6,0.1l0,0L-2.5,26l0,0c-0.2-0.2-0.5-0.3-0.9-0.3l0,0l0,0c-0.5,0-0.9,0.4-1.2,1l0,0
		v4.2h-1.9v-6.6L-4.7,24z M2.1,31L2.1,31c-1,0-1.8-0.3-2.5-1l0,0l0,0c-0.7-0.7-1-1.5-1-2.5l0,0l0,0c0-1,0.3-1.8,1-2.5l0,0l0,0
		c0.7-0.7,1.5-1,2.5-1l0,0l0,0c1,0,1.8,0.3,2.5,1l0,0l0,0c0.7,0.7,1,1.5,1,2.5l0,0l0,0c0,1-0.3,1.8-1,2.5l0,0l0,0
		C3.9,30.6,3.1,31,2.1,31L2.1,31z M2.1,29.3L2.1,29.3L2.1,29.3c0.5,0,0.9-0.2,1.3-0.5l0,0l0,0c0.3-0.3,0.5-0.8,0.5-1.3l0,0l0,0
		c0-0.5-0.2-1-0.5-1.3l0,0l0,0c-0.3-0.4-0.8-0.5-1.3-0.5l0,0l0,0c-0.5,0-0.9,0.2-1.3,0.5l0,0l0,0c-0.3,0.3-0.5,0.8-0.5,1.3l0,0l0,0
		c0,0.5,0.2,1,0.5,1.3l0,0l0,0C1.2,29.1,1.6,29.3,2.1,29.3z M11,28.5L11,28.5V24h1.9v6.8H11v-0.6l0,0c-0.5,0.4-1,0.6-1.6,0.6l0,0
		l0,0c-0.9,0-1.5-0.3-2-0.8l0,0l0,0c-0.5-0.5-0.7-1.1-0.7-1.8l0,0V24h1.9v3.8l0,0c0,0.5,0.1,0.8,0.3,1.1l0,0l0,0
		c0.2,0.3,0.6,0.4,1,0.4l0,0l0,0C10.4,29.2,10.7,29,11,28.5z M16.5,33.8l-1.9,0v-9.5l1.9-0.2v0.6l0,0c0.5-0.4,1-0.6,1.5-0.6l0,0l0,0
		c1,0,1.9,0.3,2.5,1l0,0l0,0c0.6,0.7,0.9,1.5,0.9,2.4l0,0l0,0c0,0.9-0.3,1.7-0.9,2.4l0,0l0,0c-0.6,0.7-1.4,1-2.5,1l0,0l0,0
		c-0.7,0-1.2-0.2-1.5-0.6l0,0V33.8z M16.5,26.8L16.5,26.8V28l0,0c0.1,0.8,0.6,1.2,1.4,1.4l0,0l0,0c1.1-0.1,1.7-0.7,1.8-1.7l0,0l0,0
		c0-1.3-0.7-1.9-1.8-2l0,0l0,0C17,25.8,16.6,26.2,16.5,26.8z M25.8,31L25.8,31c-1,0-1.8-0.3-2.5-1l0,0l0,0c-0.7-0.7-1-1.5-1-2.5l0,0
		l0,0c0-1,0.3-1.8,1-2.5l0,0l0,0c0.7-0.7,1.5-1,2.5-1l0,0l0,0c1,0,1.8,0.3,2.5,1l0,0l0,0c0.7,0.7,1,1.5,1,2.5l0,0l0,0
		c0,1-0.3,1.8-1,2.5l0,0l0,0C27.7,30.6,26.8,31,25.8,31L25.8,31z M25.8,29.3L25.8,29.3L25.8,29.3c0.5,0,0.9-0.2,1.3-0.5l0,0l0,0
		c0.3-0.3,0.5-0.8,0.5-1.3l0,0l0,0c0-0.5-0.2-1-0.5-1.3l0,0l0,0c-0.3-0.4-0.7-0.5-1.3-0.5l0,0l0,0c-0.5,0-0.9,0.2-1.3,0.5l0,0l0,0
		c-0.3,0.3-0.5,0.8-0.5,1.3l0,0l0,0c0,0.5,0.2,1,0.5,1.3l0,0l0,0C24.9,29.1,25.3,29.3,25.8,29.3z M32.5,26.5L32.5,26.5v4.4h-1.9
		v-6.6l1.9-0.2v0.6l0,0c0.4-0.4,1-0.6,1.6-0.6l0,0l0,0c0.9,0,1.5,0.3,2,0.8l0,0l0,0c0.5-0.5,1.3-0.8,2.3-0.8l0,0l0,0
		c0.9,0,1.5,0.3,2,0.8l0,0l0,0c0.5,0.5,0.7,1.1,0.7,1.8l0,0v4.2h-1.9v-3.8l0,0c0-0.5-0.1-0.8-0.3-1.1l0,0l0,0
		c-0.2-0.2-0.5-0.4-1-0.4l0,0l0,0c-0.4,0-0.7,0.3-1,0.8l0,0l0,0c0,0.1,0,0.3,0,0.4l0,0v4h-1.9v-3.8l0,0c0-0.5-0.1-0.8-0.3-1.1l0,0
		l0,0c-0.2-0.2-0.5-0.4-1-0.4l0,0l0,0C33.2,25.7,32.8,26,32.5,26.5z M43.6,26l-0.8-1.2l0,0c0.9-0.5,1.9-0.8,3-0.8l0,0l0,0
		c0.8,0,1.5,0.2,1.9,0.7l0,0l0,0c0.5,0.5,0.7,1.1,0.7,2l0,0v4.1h-1.9v-0.5l0,0c-0.6,0.4-1.1,0.5-1.5,0.5l0,0l0,0
		c-0.9,0-1.6-0.2-2-0.6l0,0l0,0c-0.5-0.4-0.7-0.9-0.7-1.6l0,0l0,0c0-0.6,0.2-1.2,0.7-1.7l0,0l0,0c0.4-0.5,1.1-0.8,2.1-0.8l0,0l0,0
		c0.4,0,1,0.1,1.5,0.4l0,0v-0.2l0,0c0-0.5-0.4-0.8-1.1-0.8l0,0l0,0C44.7,25.6,44.1,25.8,43.6,26L43.6,26z M46.7,28.8L46.7,28.8v-0.8
		l0,0c-0.2-0.4-0.6-0.5-1.3-0.5l0,0l0,0c-0.8,0.1-1.3,0.4-1.3,1l0,0l0,0c0,0.5,0.5,0.8,1.3,0.9l0,0l0,0C46,29.4,46.5,29.2,46.7,28.8
		z M52.2,26.5L52.2,26.5v4.3h-1.9v-6.6l1.9-0.2v0.6l0,0c0.5-0.4,1-0.6,1.6-0.6l0,0l0,0c0.9,0,1.5,0.3,2,0.8l0,0l0,0
		c0.5,0.5,0.7,1.1,0.7,1.8l0,0v4.2h-1.9v-3.8l0,0c0-0.5-0.1-0.8-0.3-1.1l0,0l0,0c-0.2-0.2-0.6-0.4-1-0.4l0,0l0,0
		C52.8,25.7,52.5,26,52.2,26.5z M60,30.9h-1.9V24H60V30.9z M58,22.4L58,22.4L58,22.4c0,0.3,0.1,0.5,0.3,0.7l0,0l0,0
		c0.2,0.2,0.4,0.3,0.8,0.3l0,0l0,0c0.3,0,0.6-0.1,0.8-0.3l0,0l0,0c0.2-0.2,0.3-0.4,0.3-0.7l0,0l0,0c0-0.3-0.1-0.5-0.3-0.7l0,0l0,0
		c-0.2-0.2-0.4-0.3-0.8-0.3l0,0l0,0c-0.3,0-0.6,0.1-0.7,0.3l0,0l0,0C58.1,21.9,58,22.1,58,22.4z M62.6,26l-0.8-1.2l0,0
		c0.9-0.5,1.9-0.8,3-0.8l0,0l0,0c0.8,0,1.5,0.2,1.9,0.7l0,0l0,0c0.5,0.5,0.7,1.1,0.7,2l0,0v4.1h-1.9v-0.5l0,0
		c-0.6,0.4-1.1,0.5-1.5,0.5l0,0l0,0c-0.9,0-1.6-0.2-2.1-0.6l0,0l0,0c-0.5-0.4-0.7-0.9-0.7-1.6l0,0l0,0c0-0.6,0.2-1.2,0.7-1.7l0,0
		l0,0c0.4-0.5,1.1-0.8,2.1-0.8l0,0l0,0c0.4,0,0.9,0.1,1.5,0.4l0,0v-0.2l0,0c0-0.5-0.4-0.8-1.1-0.8l0,0l0,0
		C63.7,25.6,63,25.8,62.6,26L62.6,26z M65.6,28.8L65.6,28.8v-0.8l0,0c-0.2-0.4-0.6-0.5-1.3-0.5l0,0l0,0c-0.8,0.1-1.3,0.4-1.3,1l0,0
		l0,0c0,0.5,0.5,0.8,1.3,0.9l0,0l0,0C65,29.4,65.4,29.2,65.6,28.8z"/>
</g>
<g id="_x34_cb061db-73fa-16fe-1d0a-15980590225e" transform="matrix(0.2931737713407769,0,0,0.2931737713407769,106.0239289062273,82.12728504171139)">
	<g>
		<path class="st1" d="M-17.1,449.4c33.6,0,65.1-12.9,88.8-36.6c23.7-23.7,36.6-55.2,36.6-88.8s-12.9-65.1-36.6-88.8
			c-23.7-23.7-55.2-36.6-88.8-36.6s-65.1,12.9-88.8,36.6c-23.7,23.7-36.6,55.2-36.6,88.8s12.9,65.1,36.6,88.8
			C-82.2,436.5-50.7,449.4-17.1,449.4z M-9.9,428.1c-2.4,0.3-4.8,0.3-7.2,0.3c-3.3,0-6.6-0.3-9.9-0.6C-37.8,411-45.9,393-50.7,374.1
			H2.4c1.8,4.5,5.1,8.7,9,11.4C6.3,400.5-0.9,414.6-9.9,428.1z M18.6,422.1c5.7-10.5,10.2-21,13.8-32.1c8.7-1.8,15.6-7.8,18.9-15.9
			h23.1C62.4,396,42.3,413.1,18.6,422.1z M87,324c0,9.9-1.5,19.5-3.9,28.8H50.7c-1.8-3.9-4.8-7.5-8.4-10.2
			c0.6-6.6,0.9-13.2,0.9-19.8c0-9.3-0.6-18.6-1.8-27.6h41.4C85.8,304.2,87,314.1,87,324z M74.4,273.9H37.8
			c-3.9-16.5-9.6-32.1-17.4-47.1C43.2,235.5,62.4,252.6,74.4,273.9z M22.2,322.8c0,5.1-0.3,10.2-0.6,15.3
			c-8.4,1.8-15.3,7.2-18.6,14.7h-57.9c-1.2-9-2.1-18.3-2.1-27.3c0-5.7,0.3-11.4,0.9-17.1c7.8-1.5,14.1-6.6,18-13.2h58.5
			C21.6,304.2,22.2,313.5,22.2,322.8L22.2,322.8z M-24.9,220.2c2.7-0.3,5.4-0.3,7.8-0.3c3,0,6,0,9,0.3C2.7,237,10.8,255,15.6,273.9
			h-52.2c-1.8-5.1-5.1-9.6-9.3-12.9C-40.5,246.6-33.6,233.1-24.9,220.2L-24.9,220.2z M-53.4,226.2c-5.1,9.6-9.6,19.8-13.2,30
			c-9.3,1.8-16.8,8.7-19.8,17.4h-21.9C-96.6,252.3-77.1,235.2-53.4,226.2z M-121.2,324c0-9.9,1.5-19.8,4.2-28.8h32.7
			c1.8,3.3,4.5,6.3,7.5,8.7c-0.6,7.2-1.2,14.4-1.2,21.6c0,9.3,0.6,18.3,1.8,27.3H-117C-120,343.5-121.2,333.9-121.2,324z
			 M-72.6,373.8c3.9,16.2,9.6,32.1,17.4,47.1c-22.8-9-41.7-25.8-53.4-47.1H-72.6z"/>
	</g>
</g>
</svg>
