<?xml version="1.0" encoding="utf-8"?>
<!-- Generator: Adobe Illustrator 19.0.0, SVG Export Plug-In . SVG Version: 6.00 Build 0)  -->
<svg version="1.1" id="Layer_1" xmlns="http://www.w3.org/2000/svg" xmlns:xlink="http://www.w3.org/1999/xlink" x="0px" y="0px"
	 viewBox="-15 176.1 249 50.4" style="enable-background:new -15 176.1 249 50.4;" xml:space="preserve">
<style type="text/css">
	.st0{fill:#FD2D01;}
	.st1{fill:#FFD7D7;}
</style>
<g id="b5a93e15-ef7c-9d7a-680b-cdb17474f15f" transform="matrix(2.2,0,0,2.2,90.86749374866484,130.23299922943116)">
	<path class="st0" d="M-16.9,35.9L-16.9,35.9c-1.5,0-2.7-0.5-3.6-1.5l0,0l0,0c-1-1-1.5-2.2-1.5-3.7l0,0l0,0c0-1.4,0.5-2.7,1.5-3.6
		l0,0l0,0c1-1,2.2-1.5,3.6-1.5l0,0l0,0c1.5,0,2.7,0.5,3.8,1.4l0,0l-1.4,1.5l0,0c-0.7-0.5-1.5-0.8-2.4-0.8l0,0l0,0
		c-0.9,0-1.7,0.3-2.2,0.9l0,0l0,0c-0.6,0.6-0.8,1.3-0.8,2.2l0,0l0,0c0,1,0.3,1.7,0.9,2.3l0,0l0,0c0.6,0.6,1.3,0.8,2.2,0.8l0,0l0,0
		c0.7,0,1.3-0.1,1.7-0.4l0,0v-1.8l-1.4,0v-1.9h3.4v4.8l0,0C-14.1,35.4-15.4,35.9-16.9,35.9L-16.9,35.9z M-9.4,29v0.8l0,0
		c0.5-0.5,1.1-0.8,1.8-0.8l0,0l0,0c0.2,0,0.4,0,0.6,0l0,0L-7.3,31l0,0c-0.2-0.2-0.5-0.3-0.9-0.3l0,0l0,0c-0.5,0-0.9,0.4-1.2,1l0,0
		v4.2h-1.9v-6.6L-9.4,29z M-2.7,35.9L-2.7,35.9c-1,0-1.8-0.3-2.5-1l0,0l0,0c-0.7-0.7-1-1.5-1-2.5l0,0l0,0c0-1,0.3-1.8,1-2.5l0,0l0,0
		c0.7-0.7,1.5-1,2.5-1l0,0l0,0c1,0,1.8,0.3,2.5,1l0,0l0,0c0.7,0.7,1,1.5,1,2.5l0,0l0,0c0,1-0.3,1.8-1,2.5l0,0l0,0
		C-0.8,35.6-1.7,35.9-2.7,35.9L-2.7,35.9z M-2.7,34.3L-2.7,34.3L-2.7,34.3c0.5,0,0.9-0.2,1.3-0.5l0,0l0,0c0.3-0.3,0.5-0.8,0.5-1.3
		l0,0l0,0c0-0.5-0.2-1-0.5-1.3l0,0l0,0c-0.3-0.4-0.8-0.5-1.3-0.5l0,0l0,0c-0.5,0-0.9,0.2-1.3,0.5l0,0l0,0c-0.3,0.3-0.5,0.8-0.5,1.3
		l0,0l0,0c0,0.5,0.2,1,0.5,1.3l0,0l0,0C-3.6,34.1-3.2,34.3-2.7,34.3z M6.2,33.4L6.2,33.4V29h1.9v6.8H6.2v-0.6l0,0
		c-0.5,0.4-1,0.6-1.6,0.6l0,0l0,0c-0.9,0-1.5-0.3-2-0.8l0,0l0,0c-0.5-0.5-0.7-1.1-0.7-1.8l0,0V29h1.9v3.8l0,0c0,0.5,0.1,0.8,0.3,1.1
		l0,0l0,0c0.2,0.3,0.6,0.4,1,0.4l0,0l0,0C5.6,34.2,6,33.9,6.2,33.4z M11.7,38.7l-1.9,0v-9.5l1.9-0.2v0.5l0,0c0.5-0.4,1-0.5,1.5-0.5
		l0,0l0,0c1,0,1.9,0.3,2.5,1l0,0l0,0c0.6,0.7,0.9,1.5,0.9,2.4l0,0l0,0c0,0.9-0.3,1.7-0.9,2.4l0,0l0,0c-0.6,0.7-1.4,1-2.5,1l0,0l0,0
		c-0.7,0-1.2-0.2-1.5-0.6l0,0V38.7z M11.7,31.8L11.7,31.8v1.1l0,0c0.1,0.8,0.6,1.2,1.4,1.4l0,0l0,0c1.1-0.1,1.7-0.7,1.8-1.7l0,0l0,0
		c0-1.3-0.7-1.9-1.8-2l0,0l0,0C12.3,30.7,11.8,31.1,11.7,31.8z M21.1,35.9L21.1,35.9c-1,0-1.8-0.3-2.5-1l0,0l0,0
		c-0.7-0.7-1-1.5-1-2.5l0,0l0,0c0-1,0.3-1.8,1-2.5l0,0l0,0c0.7-0.7,1.5-1,2.5-1l0,0l0,0c1,0,1.8,0.3,2.5,1l0,0l0,0
		c0.7,0.7,1,1.5,1,2.5l0,0l0,0c0,1-0.3,1.8-1,2.5l0,0l0,0C22.9,35.6,22.1,35.9,21.1,35.9L21.1,35.9z M21.1,34.3L21.1,34.3L21.1,34.3
		c0.5,0,0.9-0.2,1.3-0.5l0,0l0,0c0.3-0.3,0.5-0.8,0.5-1.3l0,0l0,0c0-0.5-0.2-1-0.5-1.3l0,0l0,0c-0.3-0.4-0.7-0.5-1.3-0.5l0,0l0,0
		c-0.5,0-0.9,0.2-1.3,0.5l0,0l0,0c-0.3,0.3-0.5,0.8-0.5,1.3l0,0l0,0c0,0.5,0.2,1,0.5,1.3l0,0l0,0C20.1,34.1,20.6,34.3,21.1,34.3z
		 M27.8,31.5L27.8,31.5v4.4h-1.9v-6.6l1.9-0.2v0.6l0,0c0.4-0.4,1-0.6,1.6-0.6l0,0l0,0c0.9,0,1.5,0.3,2,0.8l0,0l0,0
		c0.5-0.5,1.3-0.8,2.2-0.8l0,0l0,0c0.9,0,1.5,0.3,2,0.8l0,0l0,0c0.5,0.5,0.7,1.1,0.7,1.8l0,0v4.2h-1.9v-3.8l0,0
		c0-0.5-0.1-0.8-0.3-1.1l0,0l0,0c-0.2-0.2-0.5-0.4-1-0.4l0,0l0,0c-0.4,0-0.7,0.3-1,0.8l0,0l0,0c0,0.1,0,0.3,0,0.4l0,0v4h-1.9v-3.8
		l0,0c0-0.5-0.1-0.8-0.3-1.1l0,0l0,0c-0.2-0.2-0.5-0.4-1-0.4l0,0l0,0C28.4,30.7,28.1,30.9,27.8,31.5z M38.9,31l-0.8-1.2l0,0
		c0.9-0.5,1.9-0.8,3-0.8l0,0l0,0c0.8,0,1.5,0.2,1.9,0.7l0,0l0,0c0.5,0.5,0.7,1.1,0.7,2l0,0v4.1h-1.9v-0.5l0,0
		c-0.6,0.4-1.1,0.5-1.5,0.5l0,0l0,0c-0.9,0-1.6-0.2-2-0.6l0,0l0,0c-0.5-0.4-0.7-0.9-0.7-1.6l0,0l0,0c0-0.6,0.2-1.2,0.7-1.7l0,0l0,0
		c0.4-0.5,1.1-0.8,2.1-0.8l0,0l0,0c0.4,0,1,0.1,1.5,0.4l0,0v-0.2l0,0c0-0.5-0.4-0.8-1.1-0.8l0,0l0,0C40,30.6,39.3,30.7,38.9,31
		L38.9,31z M41.9,33.8L41.9,33.8V33l0,0c-0.2-0.4-0.6-0.5-1.3-0.5l0,0l0,0c-0.8,0.1-1.3,0.4-1.3,1l0,0l0,0c0,0.5,0.5,0.8,1.3,0.9
		l0,0l0,0C41.3,34.3,41.7,34.2,41.9,33.8z M47.4,31.5L47.4,31.5v4.3h-1.9v-6.6l1.9-0.2v0.6l0,0c0.5-0.4,1-0.6,1.6-0.6l0,0l0,0
		c0.9,0,1.5,0.3,2,0.8l0,0l0,0c0.5,0.5,0.7,1.1,0.7,1.8l0,0v4.2h-1.9v-3.8l0,0c0-0.5-0.1-0.8-0.3-1.1l0,0l0,0
		c-0.2-0.2-0.6-0.4-1-0.4l0,0l0,0C48,30.7,47.7,31,47.4,31.5z M55.2,35.9h-1.9V29h1.9V35.9z M53.3,27.4L53.3,27.4L53.3,27.4
		c0,0.3,0.1,0.5,0.3,0.7l0,0l0,0c0.2,0.2,0.4,0.3,0.8,0.3l0,0l0,0c0.3,0,0.6-0.1,0.8-0.3l0,0l0,0c0.2-0.2,0.3-0.4,0.3-0.7l0,0l0,0
		c0-0.3-0.1-0.5-0.3-0.7l0,0l0,0c-0.2-0.2-0.4-0.3-0.8-0.3l0,0l0,0c-0.3,0-0.6,0.1-0.7,0.3l0,0l0,0C53.3,26.9,53.3,27.1,53.3,27.4z
		 M57.8,31L57,29.8l0,0c0.9-0.5,1.9-0.8,3-0.8l0,0l0,0c0.8,0,1.5,0.2,1.9,0.7l0,0l0,0c0.5,0.5,0.7,1.1,0.7,2l0,0v4.1h-1.9v-0.5l0,0
		c-0.6,0.4-1.1,0.5-1.5,0.5l0,0l0,0c-0.9,0-1.6-0.2-2.1-0.6l0,0l0,0c-0.5-0.4-0.7-0.9-0.7-1.6l0,0l0,0c0-0.6,0.2-1.2,0.7-1.7l0,0
		l0,0c0.4-0.5,1.1-0.8,2.1-0.8l0,0l0,0c0.4,0,0.9,0.1,1.5,0.4l0,0v-0.2l0,0c0-0.5-0.4-0.8-1.1-0.8l0,0l0,0
		C58.9,30.6,58.2,30.7,57.8,31L57.8,31z M60.8,33.8L60.8,33.8V33l0,0c-0.2-0.4-0.6-0.5-1.3-0.5l0,0l0,0c-0.8,0.1-1.3,0.4-1.3,1l0,0
		l0,0c0,0.5,0.5,0.8,1.3,0.9l0,0l0,0C60.2,34.3,60.6,34.2,60.8,33.8z"/>
</g>
<g id="_x39_269873b-566f-aa23-fe77-697bbc54db67" transform="matrix(0.17276311525438642,0,0,0.17276311525438642,35.75002377601375,124.08554457454373)">
	<g>
		<path class="st1" d="M-133.6,570.6c33.6,0,65.1-12.9,88.8-36.6c23.7-23.7,36.6-55.2,36.6-88.8c0-33.6-12.9-65.1-36.6-88.8
			c-23.7-23.7-55.2-36.6-88.8-36.6s-65.1,12.9-88.8,36.6c-23.7,23.7-36.6,55.2-36.6,88.8s12.9,65.1,36.6,88.8
			S-167.2,570.6-133.6,570.6z M-126.4,549.3c-2.4,0.3-4.8,0.3-7.2,0.3c-3.3,0-6.6-0.3-9.9-0.6c-10.8-16.8-18.9-34.8-23.7-53.7h53.1
			c1.8,4.5,5.1,8.7,9,11.4C-110.2,521.7-117.4,535.8-126.4,549.3z M-97.9,543.3c5.7-10.5,10.2-21,13.8-32.1
			c8.7-1.8,15.6-7.8,18.9-15.9h23.1C-54.1,517.2-74.2,534.3-97.9,543.3z M-29.5,445.2c0,9.9-1.5,19.5-3.9,28.8h-32.4
			c-1.8-3.9-4.8-7.5-8.4-10.2c0.6-6.6,0.9-13.2,0.9-19.8c0-9.3-0.6-18.6-1.8-27.6h41.4C-30.7,425.4-29.5,435.3-29.5,445.2z
			 M-42.1,395.1h-36.6c-3.9-16.5-9.6-32.1-17.4-47.1C-73.3,356.7-54.1,373.8-42.1,395.1z M-94.3,444c0,5.1-0.3,10.2-0.6,15.3
			c-8.4,1.8-15.3,7.2-18.6,14.7h-57.9c-1.2-9-2.1-18.3-2.1-27.3c0-5.7,0.3-11.4,0.9-17.1c7.8-1.5,14.1-6.6,18-13.2h58.5
			C-94.9,425.4-94.3,434.7-94.3,444z M-141.4,341.4c2.7-0.3,5.4-0.3,7.8-0.3c3,0,6,0,9,0.3c10.8,16.8,18.9,34.8,23.7,53.7h-52.2
			c-1.8-5.1-5.1-9.6-9.3-12.9C-157,367.8-150.1,354.3-141.4,341.4z M-169.9,347.4c-5.1,9.6-9.6,19.8-13.2,30
			c-9.3,1.8-16.8,8.7-19.8,17.4h-21.9C-213.1,373.5-193.6,356.4-169.9,347.4z M-237.7,445.2c0-9.9,1.5-19.8,4.2-28.8h32.7
			c1.8,3.3,4.5,6.3,7.5,8.7c-0.6,7.2-1.2,14.4-1.2,21.6c0,9.3,0.6,18.3,1.8,27.3h-40.8C-236.5,464.7-237.7,455.1-237.7,445.2z
			 M-189.1,495c3.9,16.2,9.6,32.1,17.4,47.1c-22.8-9-41.7-25.8-53.4-47.1H-189.1z"/>
	</g>
</g>
</svg>
